<?xml version="1.0" standalone="no"?>
<!DOCTYPE svg PUBLIC "-//W3C//DTD SVG 20010904//EN"
 "http://www.w3.org/TR/2001/REC-SVG-20010904/DTD/svg10.dtd">
<svg version="1.0" xmlns="http://www.w3.org/2000/svg"
 width="310.000000pt" height="310.000000pt" viewBox="0 0 310.000000 310.000000"
 preserveAspectRatio="xMidYMid meet">
<metadata>
Created by potrace 1.14, written by Peter Selinger 2001-2017
</metadata>
<g transform="translate(0.000000,310.000000) scale(0.100000,-0.100000)"
fill="#000000" stroke="none">
<path d="M1490 3074 c-6 -14 -16 -24 -22 -22 -7 3 -19 -1 -26 -8 -7 -7 -19
-11 -27 -8 -9 4 -15 0 -15 -7 0 -9 -3 -10 -8 -3 -4 7 -18 8 -39 2 -24 -6 -31
-13 -28 -28 2 -11 1 -19 -3 -19 -25 4 -42 -2 -36 -13 5 -8 2 -9 -9 -5 -10 3
-17 2 -17 -4 0 -6 -4 -8 -9 -5 -4 3 -8 -5 -8 -17 -1 -40 -3 -48 -12 -43 -5 3
-14 -1 -21 -9 -8 -10 -9 -15 -2 -15 7 0 9 -7 5 -17 -4 -11 -3 -14 5 -9 8 5 12
-1 12 -18 0 -14 -3 -25 -7 -24 -17 5 -74 -22 -68 -32 4 -6 3 -10 -2 -9 -4 1
-17 1 -28 0 -17 -1 -18 -3 -5 -11 13 -8 12 -10 -2 -10 -10 0 -18 -5 -18 -11 0
-5 -4 -7 -10 -4 -5 3 -17 -3 -27 -14 -9 -11 -20 -18 -25 -15 -4 3 -8 0 -8 -6
0 -6 -4 -8 -10 -5 -5 3 -10 1 -10 -4 0 -6 -7 -11 -15 -11 -8 0 -15 -7 -15 -16
0 -9 -5 -12 -12 -8 -6 4 -8 3 -5 -3 6 -10 -18 -38 -38 -45 -5 -2 -9 -6 -8 -10
2 -4 -3 -5 -11 -2 -15 6 -38 -18 -34 -37 2 -8 -5 -14 -14 -14 -25 0 -38 -17
-41 -52 -1 -22 -6 -29 -16 -25 -9 3 -12 1 -7 -6 3 -6 -2 -15 -11 -21 -13 -7
-14 -10 -4 -11 8 0 11 -3 8 -6 -3 -4 -1 -16 5 -28 11 -20 10 -20 -8 -6 -10 8
-16 10 -12 6 4 -5 3 -15 -4 -23 -9 -11 -8 -13 1 -11 8 2 15 -5 16 -15 2 -9 -1
-15 -6 -11 -5 3 -9 0 -9 -6 0 -6 -6 -8 -12 -4 -10 5 -10 4 -1 -6 10 -11 9 -16
-5 -27 -9 -8 -11 -12 -4 -8 19 10 14 -13 -5 -24 -12 -7 -14 -10 -4 -11 10 0
11 -3 2 -13 -6 -8 -8 -17 -4 -20 3 -4 1 -7 -6 -7 -7 0 -9 -4 -6 -10 3 -5 -1
-10 -9 -10 -9 0 -15 -3 -15 -7 3 -21 -2 -33 -16 -33 -14 0 -20 -13 -15 -35 1
-5 -2 -7 -6 -3 -9 10 -35 -12 -28 -23 3 -5 0 -9 -7 -9 -7 0 -10 -3 -6 -6 3 -3
-5 -16 -19 -29 -13 -12 -24 -29 -24 -38 0 -9 -5 -19 -10 -22 -15 -9 -12 -25 5
-25 8 0 15 -4 15 -10 0 -5 7 -10 16 -10 8 0 13 -4 10 -9 -4 -5 0 -12 6 -14 10
-4 10 -6 0 -6 -7 -1 -10 -5 -7 -11 4 -6 -1 -7 -11 -3 -11 4 -15 2 -11 -4 7
-11 -13 -73 -24 -73 -3 0 -5 -10 -4 -22 1 -13 -6 -34 -16 -47 -10 -13 -16 -28
-12 -34 5 -8 8 -7 11 1 3 10 10 9 29 -4 15 -9 22 -11 18 -3 -5 7 -4 10 2 6 20
-13 21 -67 1 -90 -11 -12 -17 -28 -15 -37 2 -9 -6 -30 -18 -48 -21 -31 -22
-31 -41 -14 -11 10 -25 17 -32 14 -6 -2 -12 1 -12 7 0 18 -40 34 -54 22 -7 -6
-16 -8 -19 -4 -4 3 -7 1 -7 -6 0 -7 -4 -10 -9 -6 -5 3 -12 1 -16 -5 -4 -6 -11
-8 -16 -5 -5 4 -9 1 -9 -5 0 -6 -12 -15 -26 -20 -14 -6 -22 -15 -19 -20 3 -6
0 -13 -9 -16 -8 -3 -18 -20 -22 -37 -3 -18 -10 -37 -14 -42 -5 -6 -7 -27 -5
-48 2 -20 0 -37 -6 -37 -5 0 -9 -6 -9 -12 0 -17 -45 -69 -53 -62 -3 4 -18 3
-32 0 -19 -5 -26 -13 -25 -29 1 -12 1 -25 0 -29 -1 -5 -3 -11 -5 -15 -1 -5 -7
-21 -13 -36 -12 -28 -14 -50 -12 -112 2 -76 6 -101 16 -110 7 -5 14 -22 18
-37 3 -15 11 -40 18 -55 6 -15 12 -34 14 -42 1 -8 8 -17 15 -21 6 -4 8 -13 5
-19 -4 -6 -2 -11 3 -11 6 0 11 -5 11 -11 0 -6 11 -25 24 -42 14 -18 25 -35 26
-39 1 -11 6 -28 18 -68 41 -129 40 -238 -3 -395 -8 -33 -17 -84 -19 -113 l-3
-52 1378 0 1378 0 -4 21 c-2 12 -9 27 -16 35 -6 8 -9 20 -6 29 4 8 0 18 -7 22
-7 5 -15 16 -19 26 -3 9 -15 17 -26 17 -13 0 -18 6 -17 17 2 10 -3 24 -11 31
-7 8 -10 18 -7 23 3 6 -2 17 -12 25 -11 9 -13 13 -6 9 15 -8 15 0 1 27 -6 11
-7 18 -2 15 5 -3 9 3 9 14 0 11 -5 18 -11 16 -12 -5 -28 12 -34 33 -2 8 -4 20
-6 25 -6 26 -18 44 -25 40 -5 -3 -8 17 -7 45 0 27 -2 52 -5 56 -9 8 1 58 13
62 5 2 9 11 9 21 0 20 47 64 59 56 9 -5 24 19 26 40 0 6 4 16 8 23 5 7 3 12
-5 12 -8 1 -6 6 6 15 11 8 15 15 8 15 -6 0 -9 9 -5 22 10 44 8 203 -3 258 -6
30 -8 62 -3 71 4 8 4 21 -1 29 -7 12 -11 58 -12 155 0 30 11 300 13 300 0 0 3
52 5 115 5 132 5 139 13 138 18 -2 44 4 35 8 -7 3 -10 14 -7 24 3 11 1 20 -5
20 -11 0 -28 38 -24 53 1 4 -4 6 -10 5 -7 -2 -14 7 -16 20 -2 12 -7 22 -12 22
-8 0 -23 38 -21 53 1 4 -6 10 -15 14 -13 5 -13 7 -2 14 10 6 8 9 -7 9 -17 0
-17 2 -5 10 12 7 12 10 1 10 -7 0 -11 6 -7 15 3 8 0 15 -6 15 -6 0 -9 3 -5 6
3 4 0 19 -8 35 -8 15 -11 30 -6 33 10 6 12 116 2 116 -4 0 -7 9 -8 20 -2 21
-27 53 -36 44 -3 -3 -17 21 -32 53 -67 144 -75 162 -75 173 0 5 -20 31 -45 57
-25 25 -45 49 -45 53 0 4 -9 10 -20 13 -13 3 -18 10 -14 21 3 9 1 16 -5 16 -6
0 -11 8 -11 18 0 9 -16 28 -34 42 -19 14 -32 28 -29 33 2 4 -1 7 -8 7 -7 0
-27 11 -46 26 -18 14 -38 22 -43 19 -6 -3 -13 1 -16 10 -4 8 -11 15 -18 14
-18 -2 -56 13 -56 22 0 5 -7 9 -15 9 -8 0 -15 5 -15 11 0 5 -4 8 -9 4 -5 -3
-16 1 -24 9 -8 8 -24 15 -36 15 -11 1 -30 1 -41 2 -11 0 -22 4 -25 10 -4 5
-15 9 -26 9 -10 0 -19 5 -19 11 0 5 -4 7 -10 4 -5 -3 -10 -1 -10 6 0 7 -3 9
-7 6 -3 -4 -12 -2 -20 4 -10 9 -13 8 -13 -1 0 -10 -4 -9 -16 1 -20 16 -414 24
-414 8 0 -6 -4 -7 -10 -4 -28 17 -51 13 -60 -11z"/>
</g>
</svg>
